<?xml version="1.0" encoding="UTF-8" standalone="no"?>
<svg
   xmlns:dc="http://purl.org/dc/elements/1.1/"
   xmlns:cc="http://creativecommons.org/ns#"
   xmlns:rdf="http://www.w3.org/1999/02/22-rdf-syntax-ns#"
   xmlns:svg="http://www.w3.org/2000/svg"
   xmlns="http://www.w3.org/2000/svg"
   xmlns:xlink="http://www.w3.org/1999/xlink"
   xmlns:sodipodi="http://sodipodi.sourceforge.net/DTD/sodipodi-0.dtd"
   xmlns:inkscape="http://www.inkscape.org/namespaces/inkscape"
   width="496.45633"
   height="480.61603"
   viewBox="0 0 496.45633 480.61603"
   id="svg3369"
   version="1.1"
   inkscape:version="0.48.4 r9939"
   sodipodi:docname="write.svg"
   inkscape:export-filename="/home/pivarski/talks/2017-09-05-nanoaod-xpog/write.png"
   inkscape:export-xdpi="108.7709"
   inkscape:export-ydpi="108.7709">
  <metadata
     id="metadata3569">
    <rdf:RDF>
      <cc:Work
         rdf:about="">
        <dc:format>image/svg+xml</dc:format>
        <dc:type
           rdf:resource="http://purl.org/dc/dcmitype/StillImage" />
        <dc:title>Gnuplot</dc:title>
      </cc:Work>
    </rdf:RDF>
  </metadata>
  <defs
     id="defs3567" />
  <sodipodi:namedview
     pagecolor="#ffffff"
     bordercolor="#666666"
     borderopacity="1"
     objecttolerance="10"
     gridtolerance="10"
     guidetolerance="10"
     inkscape:pageopacity="1"
     inkscape:pageshadow="2"
     inkscape:window-width="1914"
     inkscape:window-height="1027"
     id="namedview3565"
     showgrid="false"
     inkscape:zoom="1.3906433"
     inkscape:cx="99.554847"
     inkscape:cy="215.68832"
     inkscape:window-x="0"
     inkscape:window-y="0"
     inkscape:window-maximized="0"
     inkscape:current-layer="g3396"
     fit-margin-top="5"
     fit-margin-left="5"
     fit-margin-right="5"
     fit-margin-bottom="5" />
  <title
     id="title3371">Gnuplot</title>
  <desc
     id="desc3373">Produced by GNUPLOT 4.6 patchlevel 4 </desc>
  <g
     id="gnuplot_canvas"
     transform="translate(-53.658594,-0.83867187)">
    <rect
       x="0"
       y="0"
       width="600"
       height="480"
       id="rect3376"
       style="fill:none" />
    <defs
       id="defs3378">
      <circle
         id="gpDot"
         r="0.5"
         cx="0"
         cy="0"
         sodipodi:cx="0"
         sodipodi:cy="0"
         sodipodi:rx="0.5"
         sodipodi:ry="0.5"
         style="stroke-width:0.5" />
      <path
         id="gpPt0"
         d="M -1,0 H 1 M 0,-1 v 2"
         inkscape:connector-curvature="0"
         style="stroke:currentColor;stroke-width:0.222" />
      <path
         id="gpPt1"
         d="M -1,-1 1,1 M 1,-1 -1,1"
         inkscape:connector-curvature="0"
         style="stroke:currentColor;stroke-width:0.222" />
      <path
         id="gpPt2"
         d="M -1,0 1,0 M 0,-1 0,1 m -1,-2 2,2 m -2,0 2,-2"
         inkscape:connector-curvature="0"
         style="stroke:currentColor;stroke-width:0.222" />
      <rect
         id="gpPt3"
         x="-1"
         y="-1"
         width="2"
         height="2"
         style="stroke:currentColor;stroke-width:0.222" />
      <rect
         id="gpPt4"
         x="-1"
         y="-1"
         width="2"
         height="2"
         style="fill:currentColor;stroke:currentColor;stroke-width:0.222" />
      <circle
         id="gpPt5"
         cx="0"
         cy="0"
         r="1"
         sodipodi:cx="0"
         sodipodi:cy="0"
         sodipodi:rx="1"
         sodipodi:ry="1"
         style="stroke:currentColor;stroke-width:0.222" />
      <use
         xlink:href="#gpPt5"
         id="gpPt6"
         style="fill:currentColor;stroke:none"
         x="0"
         y="0"
         width="600"
         height="480" />
      <path
         id="gpPt7"
         d="m 0,-1.33 -1.33,2 2.66,0 z"
         inkscape:connector-curvature="0"
         style="stroke:currentColor;stroke-width:0.222" />
      <use
         xlink:href="#gpPt7"
         id="gpPt8"
         style="fill:currentColor;stroke:none"
         x="0"
         y="0"
         width="600"
         height="480" />
      <use
         xlink:href="#gpPt7"
         id="gpPt9"
         transform="scale(-1,-1)"
         style="stroke:currentColor"
         x="0"
         y="0"
         width="600"
         height="480" />
      <use
         xlink:href="#gpPt9"
         id="gpPt10"
         style="fill:currentColor;stroke:none"
         x="0"
         y="0"
         width="600"
         height="480" />
      <use
         xlink:href="#gpPt3"
         id="gpPt11"
         transform="matrix(0.70710678,0.70710678,-0.70710678,0.70710678,0,0)"
         style="stroke:currentColor"
         x="0"
         y="0"
         width="600"
         height="480" />
      <use
         xlink:href="#gpPt11"
         id="gpPt12"
         style="fill:currentColor;stroke:none"
         x="0"
         y="0"
         width="600"
         height="480" />
    </defs>
    <g
       style="color:#ffffff;fill:none;stroke:currentColor;stroke-width:1;stroke-linecap:butt;stroke-linejoin:miter"
       id="g3394" />
    <g
       style="color:#000000;fill:none;stroke:currentColor;stroke-width:1;stroke-linecap:butt;stroke-linejoin:miter"
       id="g3396">
      <path
         d="m 112.3,422.4 9,0 m 396.7,0 -9,0 h 0.01"
         id="path3398"
         inkscape:connector-curvature="0"
         style="stroke:#000000" />
      <g
         transform="translate(104,426.9)"
         style="font-size:15px;text-anchor:end;fill:#000000;stroke:none;font-family:Arial"
         id="g3400">
        <text
           id="text3402">
          <tspan
             style="font-size:22px"
             id="tspan3336">0</tspan>
        </text>
      </g>
      <path
         d="m 112.3,354.8 9,0 m 396.7,0 -9,0 h 0.01"
         id="path3404"
         inkscape:connector-curvature="0"
         style="stroke:#000000" />
      <g
         transform="translate(104,359.3)"
         style="font-size:15px;text-anchor:end;color:#000000;fill:#000000;fill-opacity:1;fill-rule:nonzero;stroke:none;marker:none;visibility:visible;display:inline;overflow:visible;enable-background:accumulate;font-family:Arial"
         id="g3406">
        <text
           id="text3408"
           style="color:#000000;fill:#000000;fill-opacity:1;fill-rule:nonzero;stroke:none;marker:none;visibility:visible;display:inline;overflow:visible;enable-background:accumulate">
          <tspan
             style="font-size:22px"
             id="tspan3359">1</tspan>
        </text>
      </g>
      <path
         d="m 112.3,287.2 9,0 m 396.7,0 -9,0 h 0.01"
         id="path3410"
         inkscape:connector-curvature="0"
         style="stroke:#000000" />
      <g
         transform="translate(104,291.7)"
         style="font-size:15px;text-anchor:end;fill:#000000;stroke:none;font-family:Arial"
         id="g3412">
        <text
           id="text3414">
          <tspan
             style="font-size:22px"
             id="tspan3361">2</tspan>
        </text>
      </g>
      <path
         d="m 112.3,219.5 9,0 m 396.7,0 -9,0 h 0.01"
         id="path3416"
         inkscape:connector-curvature="0"
         style="stroke:#000000" />
      <g
         transform="translate(104,224)"
         style="font-size:15px;text-anchor:end;fill:#000000;stroke:none;font-family:Arial"
         id="g3418">
        <text
           id="text3420">
          <tspan
             style="font-size:22px"
             id="tspan3363">3</tspan>
        </text>
      </g>
      <path
         d="m 112.3,151.9 9,0 m 396.7,0 -9,0 h 0.01"
         id="path3422"
         inkscape:connector-curvature="0"
         style="stroke:#000000" />
      <g
         transform="translate(104,156.4)"
         style="font-size:15px;text-anchor:end;fill:#000000;stroke:none;font-family:Arial"
         id="g3424">
        <text
           id="text3426">
          <tspan
             style="font-size:22px"
             id="tspan3365">4</tspan>
        </text>
      </g>
      <path
         d="m 112.3,84.3 9,0 m 396.7,0 -9,0 h 0.01"
         id="path3428"
         inkscape:connector-curvature="0"
         style="stroke:#000000" />
      <g
         transform="translate(104,88.8)"
         style="font-size:15px;text-anchor:end;fill:#000000;stroke:none;font-family:Arial"
         id="g3430">
        <text
           id="text3432">
          <tspan
             style="font-size:22px"
             id="tspan3367">5</tspan>
        </text>
      </g>
      <path
         d="m 112.3,16.7 9,0 m 396.7,0 -9,0 h 0.01"
         id="path3434"
         inkscape:connector-curvature="0"
         style="stroke:#000000" />
      <g
         transform="translate(104,21.2)"
         style="font-size:15px;text-anchor:end;fill:#000000;stroke:none;font-family:Arial"
         id="g3436">
        <text
           id="text3438">
          <tspan
             style="font-size:22px"
             id="tspan3369">6</tspan>
        </text>
      </g>
      <path
         d="m 112.3,422.4 0,-9 m 0,-396.7 0,9 h 0.01"
         id="path3440"
         inkscape:connector-curvature="0"
         style="stroke:#000000" />
      <g
         transform="translate(112.3,444.9)"
         style="font-size:15px;text-anchor:middle;fill:#000000;stroke:none;font-family:Arial"
         id="g3442">
        <text
           id="text3444">
          <tspan
             style="font-size:22px"
             id="tspan3385">0</tspan>
        </text>
      </g>
      <path
         d="m 193.4,422.4 0,-9 m 0,-396.7 0,9 h 0.01"
         id="path3446"
         inkscape:connector-curvature="0"
         style="stroke:#000000" />
      <g
         transform="translate(193.4,444.9)"
         style="font-size:15px;text-anchor:middle;fill:#000000;stroke:none;font-family:Arial"
         id="g3448">
        <text
           id="text3450">
          <tspan
             style="font-size:22px"
             id="tspan3387">1</tspan>
        </text>
      </g>
      <path
         d="m 274.6,422.4 0,-9 m 0,-396.7 0,9 h 0.01"
         id="path3452"
         inkscape:connector-curvature="0"
         style="stroke:#000000" />
      <g
         transform="translate(274.6,444.9)"
         style="font-size:15px;text-anchor:middle;fill:#000000;stroke:none;font-family:Arial"
         id="g3454">
        <text
           id="text3456">
          <tspan
             style="font-size:22px"
             id="tspan3389">2</tspan>
        </text>
      </g>
      <path
         d="m 355.7,422.4 0,-9 m 0,-396.7 0,9 h 0.01"
         id="path3458"
         inkscape:connector-curvature="0"
         style="stroke:#000000" />
      <g
         transform="translate(355.7,444.9)"
         style="font-size:15px;text-anchor:middle;fill:#000000;stroke:none;font-family:Arial"
         id="g3460">
        <text
           id="text3462">
          <tspan
             style="font-size:22px"
             id="tspan3391">3</tspan>
        </text>
      </g>
      <path
         d="m 436.9,422.4 0,-9 m 0,-396.7 0,9 h 0.01"
         id="path3464"
         inkscape:connector-curvature="0"
         style="stroke:#000000" />
      <g
         transform="translate(436.9,444.9)"
         style="font-size:15px;text-anchor:middle;fill:#000000;stroke:none;font-family:Arial"
         id="g3466">
        <text
           id="text3468">
          <tspan
             style="font-size:22px"
             id="tspan3393">4</tspan>
        </text>
      </g>
      <path
         d="m 518,422.4 0,-9 m 0,-396.7 0,9 h 0.01"
         id="path3470"
         inkscape:connector-curvature="0"
         style="stroke:#000000" />
      <g
         transform="translate(518,444.9)"
         style="font-size:15px;text-anchor:middle;fill:#000000;stroke:none;font-family:Arial"
         id="g3472">
        <text
           id="text3474">
          <tspan
             style="font-size:22px"
             id="tspan3395">5</tspan>
        </text>
      </g>
      <path
         d="m 112.3,16.7 0,405.7 405.7,0 0,-405.7 -405.7,0 z m 0,0 h 0.01"
         id="path3476"
         inkscape:connector-curvature="0"
         style="stroke:#000000" />
      <g
         transform="matrix(0,-1,1,0,74.6,219.6)"
         style="font-size:15px;text-anchor:middle;fill:#000000;stroke:none;font-family:Arial"
         id="g3478">
        <text
           id="text3480">
          <tspan
             style="font-size:22px"
             id="tspan3334">Rate of writing to disk (kHz)</tspan>
        </text>
      </g>
      <g
         transform="translate(315.1,471.9)"
         style="font-size:15px;text-anchor:middle;fill:#000000;stroke:none;font-family:Arial"
         id="g3482">
        <text
           id="text3484">
          <tspan
             style="font-size:22px"
             id="tspan3381">Event size (kB/event)</tspan>
        </text>
      </g>
      <g
         id="g4366"
         style="font-size:15px;text-anchor:middle;fill:#000000;stroke:none;font-family:Arial"
         transform="translate(474.33465,68.712459)">
        <text
           id="text4368">
          <tspan
             style="font-size:22px"
             id="tspan3379">uncompressed</tspan>
        </text>
      </g>
      <g
         transform="translate(306.06721,73.184281)"
         style="font-size:15px;text-anchor:middle;fill:#0000ff;stroke:none;font-family:Arial"
         id="g4370">
        <text
           id="text4372"
           style="fill:#0000ff">
          <tspan
             style="font-size:22px"
             id="tspan3371">lz4 1‒3</tspan>
        </text>
      </g>
      <g
         id="g4374"
         style="font-size:15px;text-anchor:middle;fill:#ff0000;stroke:none;font-family:Arial"
         transform="translate(217.61894,153.56527)">
        <text
           style="fill:#ff0000"
           id="text4376">
          <tspan
             style="font-size:22px"
             id="tspan3375">zlib</tspan>
        </text>
      </g>
      <g
         transform="translate(190.98985,339.87982)"
         style="font-size:15px;text-anchor:middle;fill:#008000;stroke:none;font-family:Arial"
         id="g4378">
        <text
           id="text4380"
           style="fill:#008000">
          <tspan
             style="font-size:22px"
             id="tspan3383">lzma</tspan>
        </text>
      </g>
      <g
         id="g4382"
         style="font-size:15px;text-anchor:middle;fill:#0000ff;stroke:none;font-family:Arial"
         transform="translate(323.32541,157.318)">
        <text
           style="fill:#0000ff"
           id="text4384">
          <tspan
             style="font-size:22px"
             id="tspan3377">lz4 4‒9</tspan>
        </text>
      </g>
    </g>
    <g
       id="gnuplot_plot_1">
      <title
         id="title3487">gnuplot_plot_1</title>
      <g
         style="color:#ff0000;fill:none;stroke:currentColor;stroke-width:1;stroke-linecap:butt;stroke-linejoin:miter"
         id="g3489">
        <use
           xlink:href="#gpPt0"
           transform="matrix(4.5,0,0,4.5,473.3,35.6)"
           id="use3491"
           style="color:#ff0000"
           x="0"
           y="0"
           width="600"
           height="480" />
        <use
           xlink:href="#gpPt0"
           transform="matrix(4.5,0,0,4.5,245.7,155.3)"
           id="use3493"
           style="color:#ff0000"
           x="0"
           y="0"
           width="600"
           height="480" />
        <use
           xlink:href="#gpPt0"
           transform="matrix(4.5,0,0,4.5,245.1,176.3)"
           id="use3495"
           style="color:#ff0000"
           x="0"
           y="0"
           width="600"
           height="480" />
        <use
           xlink:href="#gpPt0"
           transform="matrix(4.5,0,0,4.5,243.1,227.7)"
           id="use3497"
           style="color:#ff0000"
           x="0"
           y="0"
           width="600"
           height="480" />
        <use
           xlink:href="#gpPt0"
           transform="matrix(4.5,0,0,4.5,240.2,212.1)"
           id="use3499"
           style="color:#ff0000"
           x="0"
           y="0"
           width="600"
           height="480" />
        <use
           xlink:href="#gpPt0"
           transform="matrix(4.5,0,0,4.5,239.3,261.5)"
           id="use3501"
           style="color:#ff0000"
           x="0"
           y="0"
           width="600"
           height="480" />
        <use
           xlink:href="#gpPt0"
           transform="matrix(4.5,0,0,4.5,236.3,330.4)"
           id="use3503"
           style="color:#ff0000"
           x="0"
           y="0"
           width="600"
           height="480" />
        <use
           xlink:href="#gpPt0"
           transform="matrix(4.5,0,0,4.5,234.9,362.2)"
           id="use3505"
           style="color:#ff0000"
           x="0"
           y="0"
           width="600"
           height="480" />
        <use
           xlink:href="#gpPt0"
           transform="matrix(4.5,0,0,4.5,233.1,392.6)"
           id="use3507"
           style="color:#ff0000"
           x="0"
           y="0"
           width="600"
           height="480" />
        <use
           xlink:href="#gpPt0"
           transform="matrix(4.5,0,0,4.5,232.2,403.5)"
           id="use3509"
           style="color:#ff0000"
           x="0"
           y="0"
           width="600"
           height="480" />
      </g>
    </g>
    <g
       id="gnuplot_plot_2">
      <title
         id="title3512">gnuplot_plot_2</title>
      <g
         style="color:#008000;fill:none;stroke:currentColor;stroke-width:1;stroke-linecap:butt;stroke-linejoin:miter"
         id="g3514">
        <use
           xlink:href="#gpPt1"
           transform="matrix(4.5,0,0,4.5,473.3,35.6)"
           id="use3516"
           style="color:#008000"
           x="0"
           y="0"
           width="600"
           height="480" />
        <use
           xlink:href="#gpPt1"
           transform="matrix(4.5,0,0,4.5,212.2,356.8)"
           id="use3518"
           style="color:#008000"
           x="0"
           y="0"
           width="600"
           height="480" />
        <use
           xlink:href="#gpPt1"
           transform="matrix(4.5,0,0,4.5,210.6,361.5)"
           id="use3520"
           style="color:#008000"
           x="0"
           y="0"
           width="600"
           height="480" />
        <use
           xlink:href="#gpPt1"
           transform="matrix(4.5,0,0,4.5,209.9,367.6)"
           id="use3522"
           style="color:#008000"
           x="0"
           y="0"
           width="600"
           height="480" />
        <use
           xlink:href="#gpPt1"
           transform="matrix(4.5,0,0,4.5,205.1,397.4)"
           id="use3524"
           style="color:#008000"
           x="0"
           y="0"
           width="600"
           height="480" />
        <use
           xlink:href="#gpPt1"
           transform="matrix(4.5,0,0,4.5,203.7,402.8)"
           id="use3526"
           style="color:#008000"
           x="0"
           y="0"
           width="600"
           height="480" />
        <use
           xlink:href="#gpPt1"
           transform="matrix(4.5,0,0,4.5,203.1,406.8)"
           id="use3528"
           style="color:#008000"
           x="0"
           y="0"
           width="600"
           height="480" />
        <use
           xlink:href="#gpPt1"
           transform="matrix(4.5,0,0,4.5,203.1,406.8)"
           id="use3530"
           style="color:#008000"
           x="0"
           y="0"
           width="600"
           height="480" />
        <use
           xlink:href="#gpPt1"
           transform="matrix(4.5,0,0,4.5,203.1,406.8)"
           id="use3532"
           style="color:#008000"
           x="0"
           y="0"
           width="600"
           height="480" />
        <use
           xlink:href="#gpPt1"
           transform="matrix(4.5,0,0,4.5,203.1,406.8)"
           id="use3534"
           style="color:#008000"
           x="0"
           y="0"
           width="600"
           height="480" />
      </g>
    </g>
    <g
       id="gnuplot_plot_3">
      <title
         id="title3537">gnuplot_plot_3</title>
      <g
         style="color:#0000ff;fill:none;stroke:currentColor;stroke-width:1;stroke-linecap:butt;stroke-linejoin:miter"
         id="g3539">
        <use
           xlink:href="#gpPt2"
           transform="matrix(4.5,0,0,4.5,473.3,35.6)"
           id="use3541"
           style="color:#0000ff;stroke:#000000;stroke-opacity:1"
           x="0"
           y="0"
           width="600"
           height="480" />
        <use
           xlink:href="#gpPt2"
           transform="matrix(4.5,0,0,4.5,305.2,45.8)"
           id="use3543"
           style="color:#0000ff"
           x="0"
           y="0"
           width="600"
           height="480" />
        <use
           xlink:href="#gpPt2"
           transform="matrix(4.5,0,0,4.5,305.2,45.1)"
           id="use3545"
           style="color:#0000ff"
           x="0"
           y="0"
           width="600"
           height="480" />
        <use
           xlink:href="#gpPt2"
           transform="matrix(4.5,0,0,4.5,305.2,46.5)"
           id="use3547"
           style="color:#0000ff"
           x="0"
           y="0"
           width="600"
           height="480" />
        <use
           xlink:href="#gpPt2"
           transform="matrix(4.5,0,0,4.5,271.8,167.5)"
           id="use3549"
           style="color:#0000ff"
           x="0"
           y="0"
           width="600"
           height="480" />
        <use
           xlink:href="#gpPt2"
           transform="matrix(4.5,0,0,4.5,268.5,192.5)"
           id="use3551"
           style="color:#0000ff"
           x="0"
           y="0"
           width="600"
           height="480" />
        <use
           xlink:href="#gpPt2"
           transform="matrix(4.5,0,0,4.5,266.3,214.8)"
           id="use3553"
           style="color:#0000ff"
           x="0"
           y="0"
           width="600"
           height="480" />
        <use
           xlink:href="#gpPt2"
           transform="matrix(4.5,0,0,4.5,264.8,240.5)"
           id="use3555"
           style="color:#0000ff"
           x="0"
           y="0"
           width="600"
           height="480" />
        <use
           xlink:href="#gpPt2"
           transform="matrix(4.5,0,0,4.5,263.6,268.9)"
           id="use3557"
           style="color:#0000ff"
           x="0"
           y="0"
           width="600"
           height="480" />
        <use
           xlink:href="#gpPt2"
           transform="matrix(4.5,0,0,4.5,262.8,297.3)"
           id="use3559"
           style="color:#0000ff"
           x="0"
           y="0"
           width="600"
           height="480" />
      </g>
    </g>
    <g
       style="color:#000000;fill:none;stroke:currentColor;stroke-width:1;stroke-linecap:butt;stroke-linejoin:miter"
       id="g3561">
      <path
         d="m 112.3,16.7 0,405.7 405.7,0 0,-405.7 -405.7,0 z m 0,0 h 0.01"
         id="path3563"
         inkscape:connector-curvature="0"
         style="stroke:#000000" />
    </g>
    <path
       sodipodi:type="arc"
       style="color:#000000;fill:#000000;fill-opacity:1;stroke:none;stroke-width:2;marker:none;visibility:visible;display:inline;overflow:visible;enable-background:accumulate"
       id="path4339"
       sodipodi:cx="473.13559"
       sodipodi:cy="35.720337"
       sodipodi:rx="6.4830508"
       sodipodi:ry="6.4830508"
       d="m 479.61864,35.720337 c 0,3.58049 -2.90256,6.483051 -6.48305,6.483051 -3.58049,0 -6.48305,-2.902561 -6.48305,-6.483051 0,-3.58049 2.90256,-6.483051 6.48305,-6.483051 3.58049,0 6.48305,2.902561 6.48305,6.483051 z"
       transform="translate(0.12711864,-0.12711864)" />
  </g>
</svg>
